<svg xmlns="http://www.w3.org/2000/svg" xml:space="preserve" width="2048" height="2048" style="shape-rendering:geometricPrecision;text-rendering:geometricPrecision;image-rendering:optimizeQuality;fill-rule:evenodd;clip-rule:evenodd"><defs><clipPath id="id0"><path d="M1024-.001c565.541 0 1024 458.46 1024 1024s-458.461 1024-1024 1024c-565.541 0-1024-458.461-1024-1024 0-565.541 458.461-1024 1024-1024z"/></clipPath><style>.fil1{fill:#0288d1}.fil9{fill:#616161}.fil10{fill:#689f38}.fil11{fill:#8bc34a}.fil4,.fil7{fill:#616161;fill-rule:nonzero}.fil4{fill:#d50000}</style></defs><g id="Layer_x0020_1"><path d="M1024-.001c565.541 0 1024 458.46 1024 1024s-458.461 1024-1024 1024c-565.541 0-1024-458.461-1024-1024 0-565.541 458.461-1024 1024-1024z" style="fill:#03a9f4"/><g style="clip-path:url(#id0)"><g id="_466414288"><path id="_4625378321" class="fil1" d="M1448.45 904.169 2584.33 2040.05v577.71L1448.45 1481.88z"/><path id="_462537424" class="fil1" d="m1502.26 1496.5 1135.88 1135.88 1.05 1.1 1.01 1.13.97 1.16.94 1.19.9 1.22.87 1.25.83 1.27-1135.88-1135.88-.83-1.28-.87-1.24-.9-1.22-.94-1.19-.98-1.16-1.01-1.13z"/><path id="_462535672" class="fil1" d="m1573.08 1515.74 1135.88 1135.88 2.41 2.64 2.14 2.87 1.87 3.06 1.57 3.25 1.25 3.41.92 3.56.57 3.68.19 3.79v37.17L1584 1579.17v-37.18l-.19-3.78-.57-3.69-.92-3.55-1.25-3.41-1.57-3.25-1.87-3.06-2.15-2.87z"/><path id="_462535960" class="fil1" d="m1584 1579.17 1135.88 1135.88h-93.09L1490.91 1579.17z"/><path id="_462534904" class="fil1" d="m1490.91 1579.17 1135.88 1135.88h-26.18L1464.73 1579.17z"/><path id="_462535768" class="fil1" d="m1464.73 1579.17 1135.88 1135.88h-21.54L1443.19 1579.17z"/><path id="_462535840" class="fil1" d="m1443.19 1579.17 1135.88 1135.88h-55.82L1387.37 1579.17z"/><path id="_462535864" class="fil1" d="m1387.37 1579.17 1135.88 1135.88h-17.81L1369.56 1579.17z"/><path id="_462535936" class="fil1" d="M589.932 862.094 1725.81 1997.98h-125.93L464 862.094z"/><path id="_462536128" class="fil1" d="m1079.31 1579.17 1135.88 1135.88h-286.17L793.138 1579.17z"/><path id="_462537760" class="fil1" d="M793.138 1579.17 1929.02 2715.05h-44.83L748.31 1579.17z"/><path id="_462536296" class="fil1" d="m748.31 1579.17 1135.88 1135.88h-39.95L708.357 1579.17z"/><path id="_462534880" class="fil1" d="M708.357 1579.17 1844.24 2715.05h-67.78L640.578 1579.17z"/><path id="_462536368" class="fil1" d="M640.578 1579.17 1776.46 2715.05h-.21L640.369 1579.17z"/><path id="_462535384" class="fil1" d="M640.369 1579.17 1776.25 2715.05h-73.03L567.337 1579.17z"/><path id="_462535240" class="fil1" d="M567.337 1579.17 1703.22 2715.05h-67.78L499.561 1579.17z"/><path id="_462537064" class="fil1" d="m1369.56 1579.17 1135.88 1135.88h-290.25L1079.31 1579.17z"/><path id="_462537712" class="fil1" d="M1574.38 862.094 2710.27 1997.98h-125.94L1448.45 862.094z"/><path id="_462536800" class="fil1" d="M1448.45 862.094 2584.33 1997.98v42.07L1448.45 904.169z"/><path id="_466414696" class="fil1" d="M1448.45 904.169v577.713h19.127c17.335 0 32.627 9.189 41.246 22.937h38.001c20.445 0 37.173 16.728 37.173 37.174v37.174H499.557v-37.174c0-20.446 16.73-37.174 37.174-37.174h34.45a49.21 49.21 0 0 1 18.746-17.386V904.17l.001-42.074H463.996l559.64-393.261.36.257 550.386 393.004h-125.933v42.075z"/></g></g><path d="M1024-.001c565.541 0 1024 458.46 1024 1024s-458.461 1024-1024 1024c-565.541 0-1024-458.461-1024-1024 0-565.541 458.461-1024 1024-1024z" style="fill:none"/><path style="fill:#bdbdbd;fill-rule:nonzero" d="M1448.45 904.169v654.051h-90.37v-497.21h-271.71v497.21H589.932l-.002-22.59V904.169l.002-47.436h858.518z"/><path class="fil4" d="m463.999 862.094 559.641-393.261 550.74 393.261z"/><path style="fill:#c60404;fill-rule:nonzero" d="m464 862.094 559.64-393.261.36.258v393.003z"/><path style="fill:#a1887f;fill-rule:nonzero" d="M996.596 1061.19H725.487v271.11h271.109z"/><path class="fil7" d="M989.535 1068.25H732.546v256.988h256.989V1068.25zm-264.049-14.121h278.169v285.23H718.425v-285.23h7.06z"/><path class="fil4" d="M1032.39 1054.13H689.688v22.59h342.702z"/><path style="fill:#a1887f" d="M1086.37 1083.61V1558.22h271.71v-497.21h-271.71z"/><path class="fil7" d="M1093.43 1076.55v467.559h257.586V1061.017h-257.585v15.533zm-14.121 452.026V1046.897h285.827v511.331H1079.31V1528.577z"/><path class="fil9" d="M640.579 1541.99h824.147v37.174H640.579z"/><path class="fil10" d="M603.406 1504.82h-66.67c-20.446 0-37.175 16.728-37.175 37.174v37.174h140.81c.116 0 .208-.094.208-.21v-36.964c0-20.446-16.728-37.174-37.173-37.174zM770.881 1534.4h-40.142c-12.31 0-22.382 10.072-22.382 22.382v22.383h84.78c.07 0 .126-.054.126-.125v-22.258c0-12.31-10.071-22.382-22.382-22.382z"/><path class="fil11" d="M699.667 1481.88H612.43c-26.755 0-48.642 21.888-48.642 48.643v45.093a3.56 3.56 0 0 0 3.55 3.55H748.31v-48.643c0-26.755-21.89-48.643-48.643-48.643z"/><path class="fil10" d="M1436.01 1481.88h31.567c26.755 0 48.643 21.888 48.643 48.643v23.334c0 13.92-11.388 25.308-25.309 25.308h-103.544v-48.642c0-26.755 21.888-48.643 48.643-48.643z"/><path class="fil11" d="M1480.16 1504.82h66.67c20.446 0 37.174 16.728 37.174 37.174v37.174h-140.81a.21.21 0 0 1-.208-.21v-36.964c0-20.446 16.729-37.174 37.174-37.174z"/><path style="fill:#757575" d="M1079.31 1558.23h290.249v20.942H1079.31z"/><circle class="fil9" cx="1139.66" cy="1301.58" r="23.132"/></g></svg>
