<svg version="1.1" id="Layer_1" xmlns="http://www.w3.org/2000/svg" xmlns:xlink="http://www.w3.org/1999/xlink" x="0px" y="0px"
	 width="100%" viewBox="0 0 423 137" enable-background="new 0 0 423 137" xml:space="preserve">
<path fill="#FDFDFD" opacity="1.000000" stroke="none" 
	d="
M367.000000,138.000000 
	C245.101151,138.000000 123.202286,138.000000 1.151715,138.000000 
	C1.151715,92.333702 1.151715,46.666920 1.151715,1.000000 
	C9.075933,1.000000 17.069286,1.000000 25.560471,1.330634 
	C26.368109,2.713814 26.677919,3.766360 26.525717,4.895997 
	C20.137924,4.973089 14.212142,4.973089 7.459669,4.973089 
	C17.320198,22.724684 26.783306,39.760811 36.822815,57.834618 
	C37.203354,50.397945 37.177639,44.358318 43.623280,40.806454 
	C53.096729,35.586124 62.421432,30.094500 71.779106,24.666040 
	C75.986778,22.225142 80.050209,22.256178 84.276001,24.697184 
	C91.824631,29.057613 99.349884,33.479992 107.088112,37.483746 
	C113.011787,40.548649 116.657959,45.023918 117.811180,51.534336 
	C118.094711,53.135044 118.110275,54.783226 118.332352,57.386173 
	C128.279343,39.422829 137.682922,22.440815 147.432312,4.834330 
	C119.951370,4.834330 93.481514,4.834330 67.007599,4.450922 
	C67.002365,3.045010 67.001183,2.022505 67.000000,1.000000 
	C147.020889,1.000000 227.041794,1.000000 307.535858,1.372992 
	C308.672943,3.833107 309.336884,5.920230 309.590546,7.981465 
	C305.791473,7.573131 302.402710,7.190685 298.945557,6.481400 
	C293.904449,2.182250 293.382172,2.226740 290.551666,6.899049 
	C288.856873,6.971360 287.597107,6.971360 285.769928,6.971360 
	C286.075012,9.300441 286.063751,12.684243 286.603180,12.774432 
	C290.355225,13.401766 289.196228,15.857484 288.707336,17.975010 
	C286.255249,16.329020 284.150238,14.713637 282.056335,12.643891 
	C282.067505,10.584277 282.067505,8.979027 282.067505,7.386360 
	C277.231750,7.386360 272.883057,7.386360 268.534393,7.386360 
	C268.184967,7.774840 267.835510,8.163320 267.486084,8.551800 
	C268.694702,10.155598 269.984589,11.706653 271.074738,13.387294 
	C271.559021,14.133880 271.858429,15.139480 271.868774,16.031834 
	C271.935913,21.828279 272.022522,27.631279 271.768433,33.417458 
	C271.729736,34.298054 269.955658,35.102444 268.781128,35.701920 
	C267.548553,35.281513 266.519043,35.101280 265.409424,34.479065 
	C265.270050,32.770248 265.210785,31.503408 265.152557,30.259092 
	C262.834381,30.259092 260.926849,30.259092 259.160614,30.259092 
	C258.758514,32.325127 258.418274,34.073494 258.122589,35.592743 
	C255.157303,35.592743 252.594757,35.592743 249.896515,35.592743 
	C249.896515,29.035011 249.862793,22.872248 249.927917,16.710529 
	C249.939499,15.614817 250.147964,14.413949 250.639893,13.453361 
	C251.599747,11.579019 252.824249,9.840199 254.376434,7.341345 
	C248.157425,7.341345 243.607178,7.341345 238.460907,7.341345 
	C239.059906,9.574939 239.390167,11.399043 240.055054,13.091691 
	C240.555496,14.365669 242.072235,15.446482 242.122879,16.655727 
	C242.352753,22.145664 242.239441,27.650753 242.204987,33.150108 
	C242.199997,33.947536 242.066620,35.396561 241.801239,35.442692 
	C237.387711,36.209793 239.330154,39.573853 238.699265,42.135834 
	C236.808563,43.153530 235.020477,43.789558 233.707550,44.959030 
	C231.398026,47.016171 228.848679,49.219891 230.797668,53.204369 
	C227.702255,58.329227 224.761795,63.153400 221.483994,67.936630 
	C218.995621,64.716385 216.844574,61.537086 215.092468,58.281582 
	C221.236908,56.343384 216.490707,52.304291 217.936905,49.470039 
	C210.559540,49.470039 203.809845,49.470039 197.004532,49.470039 
	C197.004532,52.417877 197.004532,55.043507 197.004532,57.823898 
	C198.678024,58.110725 200.217361,58.374557 201.538086,58.600925 
	C201.538086,62.893917 201.538086,66.836174 201.538086,70.810417 
	C194.196045,70.810417 187.139069,70.810417 180.087692,70.810417 
	C180.087692,66.530106 180.087692,62.592476 180.087692,58.432362 
	C181.685425,58.242741 183.099274,58.074944 184.554260,57.902267 
	C184.554260,54.882809 184.554260,52.151627 184.554260,49.356133 
	C177.489349,49.356133 170.722519,49.356133 163.702606,49.356133 
	C163.702606,52.314350 163.702606,55.066200 163.702606,57.815506 
	C165.357727,58.101742 166.786331,58.348801 168.178101,58.589493 
	C168.178101,69.760963 168.178101,80.685066 168.178101,91.706703 
	C166.523956,91.919136 165.119400,92.099518 163.766449,92.273270 
	C163.766449,95.406891 163.766449,98.157249 163.766449,100.927612 
	C170.856949,100.927612 177.625610,100.927612 184.620819,100.927612 
	C184.620819,97.929817 184.620819,95.186386 184.620819,92.398140 
	C182.894730,92.061783 181.379440,91.766495 180.143661,91.525681 
	C180.143661,87.167999 180.143661,83.237488 180.143661,79.377396 
	C187.494705,79.377396 194.548340,79.377396 201.583405,79.377396 
	C201.583405,83.685036 201.583405,87.624809 201.583405,91.769089 
	C199.958893,91.914078 198.547760,92.040024 197.055237,92.173233 
	C197.055237,95.245140 197.055237,97.992760 197.055237,100.802948 
	C204.157028,100.802948 211.016678,100.802948 217.701233,100.802948 
	C217.701233,97.658684 217.701233,94.899582 217.701233,92.175629 
	C215.959518,92.010002 214.535248,91.874557 213.025635,91.730995 
	C213.025635,82.939583 213.025635,74.471611 213.372986,66.032715 
	C216.157425,68.373421 218.594528,70.685051 221.099274,73.420105 
	C221.422882,76.485817 221.472473,79.167793 221.971664,81.763306 
	C223.817276,91.359749 229.109039,98.363808 238.744293,100.758163 
	C249.361572,103.396553 259.273254,101.995728 266.578400,92.597008 
	C275.768646,80.772911 273.262054,62.582180 261.334869,51.864029 
	C265.943787,49.535149 271.514099,48.776714 272.495056,42.320000 
	C276.187195,42.232826 279.429688,42.232826 282.585510,42.232826 
	C282.791687,39.952019 282.924957,38.477840 283.404999,37.003098 
	C284.445312,37.005226 285.138824,37.007915 285.900757,37.458656 
	C286.074799,39.302429 286.180481,40.698147 286.283783,42.062805 
	C292.445648,42.062805 298.115326,42.348129 303.746063,42.001476 
	C314.403351,41.345367 320.513214,34.611519 319.864349,23.935112 
	C319.640503,20.252270 317.921387,16.660307 317.165466,12.831692 
	C317.090576,11.387815 316.916168,10.048512 316.344421,8.908465 
	C314.997040,6.221776 313.460205,3.630102 312.000000,0.999995 
	C349.276947,1.000000 386.553864,1.000000 423.915405,1.000000 
	C423.915405,46.666615 423.915405,92.333290 423.915405,138.000000 
	C410.563721,138.000000 397.250519,138.000000 383.467438,137.632477 
	C381.679596,135.042450 380.495361,132.721146 378.967529,130.653732 
	C378.466522,129.975830 377.073822,129.956863 376.088928,129.636566 
	C375.969910,130.803238 375.515747,132.063019 375.808136,133.115387 
	C376.280457,134.815369 377.243958,136.378860 378.000000,138.000000 
	C376.933319,138.000000 375.866669,138.000000 374.364807,137.639038 
	C372.748108,135.895386 371.566589,134.512680 370.385071,133.129974 
	C369.256714,134.753311 368.128357,136.376648 367.000000,138.000000 
M285.119049,113.911217 
	C283.192291,113.911217 281.265564,113.911217 279.264771,113.911217 
	C279.264771,119.205803 279.264771,124.100525 279.264771,129.693710 
	C282.474121,129.086197 285.306732,128.550003 288.757782,127.901581 
	C288.845245,124.595795 288.932709,121.290009 289.012207,117.252678 
	C288.020477,116.163742 287.028717,115.074806 285.119049,113.911217 
M271.118164,113.913139 
	C269.188660,113.913139 267.259155,113.913139 265.253571,113.913139 
	C265.253571,119.202629 265.253571,124.098457 265.253571,129.696487 
	C268.476593,129.085846 271.306427,128.549698 274.753998,127.900169 
	C274.842560,124.595177 274.931122,121.290176 275.011200,117.253632 
	C274.019836,116.164352 273.028473,115.075073 271.118164,113.913139 
M318.002228,127.883301 
	C320.016632,125.679947 321.618774,123.518883 317.036682,121.149170 
	C315.016907,120.629272 312.997162,120.109383 310.799500,119.543694 
	C310.799500,118.374733 310.799500,117.017769 310.799500,115.423149 
	C312.790955,115.618645 314.383667,115.774994 316.241516,116.540688 
	C316.870575,117.255318 317.499634,117.969948 318.128693,118.684578 
	C318.562012,118.286934 318.995300,117.889297 319.428589,117.491653 
	C318.245789,116.346260 317.062958,115.200867 315.144348,113.911896 
	C312.885895,113.911896 310.627411,113.911896 308.339722,113.911896 
	C308.339722,119.183029 308.339722,123.949959 308.339722,129.790482 
	C311.584045,129.125320 314.468048,128.534042 318.002228,127.883301 
M77.544022,67.013626 
	C83.596115,63.598541 89.648209,60.183460 96.457932,56.969311 
	C96.717674,56.997601 96.977409,57.025890 96.910065,57.933468 
	C96.884300,64.416389 97.026512,70.907478 96.712257,77.376389 
	C96.635628,78.953705 95.429115,81.006798 94.106644,81.895142 
	C89.845284,84.757645 85.220734,87.074188 80.887444,89.838326 
	C79.706734,90.591499 78.354477,92.142014 78.287994,93.390862 
	C78.002182,98.759674 78.165955,104.152428 78.165955,110.290871 
	C89.788994,103.572990 100.691719,97.326515 111.500534,90.921570 
	C112.383278,90.398491 113.084496,88.798546 113.094749,87.691803 
	C113.207161,75.556595 113.154594,63.419933 113.173935,51.283714 
	C113.178154,48.639057 112.176773,48.349331 109.997299,49.255451 
	C110.824921,48.272293 111.652550,47.289135 112.594421,46.170250 
	C108.267776,43.619495 103.890007,41.256882 99.761681,38.518246 
	C97.491928,37.012547 95.848015,37.084362 93.533768,38.483116 
	C83.619179,44.475567 73.553383,50.217381 63.581757,56.116570 
	C62.524643,56.741959 61.723442,57.799919 60.344521,59.405380 
	C60.289005,64.545609 60.134613,69.687981 60.245781,74.824608 
	C60.274464,76.149757 60.745556,78.065514 61.683453,78.669464 
	C66.354126,81.677139 71.248398,84.337585 76.880859,87.592300 
	C76.880859,80.140564 76.880859,73.732124 77.544022,67.013626 
M41.954815,48.563576 
	C41.922276,58.206909 42.596607,67.920052 41.653141,77.473427 
	C40.756943,86.548210 43.726978,91.715065 52.075245,95.435448 
	C60.447372,99.166466 68.117401,104.472954 76.849510,109.525436 
	C76.849510,103.257095 77.016708,97.979340 76.728714,92.726547 
	C76.659119,91.457016 75.338142,89.876099 74.156609,89.117126 
	C70.247429,86.606026 66.243896,84.189903 62.072231,82.156540 
	C58.994541,80.656410 57.738350,78.791626 57.907951,75.262169 
	C58.210800,68.959816 57.957348,62.630726 58.645069,56.077835 
	C70.544594,49.264675 82.444115,42.451511 94.530655,35.531273 
	C89.963562,32.898403 85.574860,30.549782 81.388008,27.884113 
	C79.019249,26.375978 77.196022,26.333183 74.716957,27.821558 
	C64.913383,33.707409 54.943130,39.315102 45.074005,45.093098 
	C44.013355,45.714073 43.208931,46.772694 41.954815,48.563576 
M280.453613,88.362717 
	C281.500275,92.652206 277.731995,91.720604 275.806183,92.317238 
	C275.806183,95.458733 275.806183,98.194183 275.806183,100.863037 
	C282.746979,100.863037 289.331024,100.863037 296.040955,100.863037 
	C296.040955,97.921585 296.040955,95.293053 296.040955,92.390732 
	C294.672607,92.111580 293.311707,91.833946 292.214783,91.610168 
	C292.214783,81.810455 292.214783,72.359886 292.214783,62.909309 
	C295.554474,70.634499 298.304504,78.425201 301.068878,86.210815 
	C304.070343,94.664276 304.076141,94.662224 313.555176,93.875893 
	C317.368256,83.288437 321.224609,72.580872 325.080963,61.873302 
	C325.259216,61.967514 325.437469,62.061726 325.615723,62.155937 
	C325.615723,71.951157 325.615723,81.746384 325.615723,91.616211 
	C324.053223,91.900345 322.675323,92.150909 321.516327,92.361671 
	C321.516327,95.504097 321.516327,98.240158 321.516327,100.911026 
	C328.477264,100.911026 335.071655,100.911026 341.798340,100.911026 
	C341.798340,97.887131 341.798340,95.132408 341.798340,92.347260 
	C340.082977,92.052429 338.557007,91.790154 337.346863,91.582161 
	C337.346863,80.242889 337.346863,69.321640 337.346863,58.459019 
	C339.076996,58.218990 340.468201,58.025986 341.796478,57.841709 
	C341.796478,54.865555 341.796478,52.255726 341.796478,49.153038 
	C336.813171,49.153038 331.985596,49.548260 327.252777,49.047703 
	C321.966309,48.488594 319.346100,50.071316 317.799072,55.455261 
	C315.482117,63.518665 312.073669,71.268440 308.694153,80.317131 
	C305.023682,70.329788 301.868347,61.498402 298.474884,52.759487 
	C297.927338,51.349400 296.370697,49.384663 295.193970,49.322826 
	C288.768066,48.985149 282.315125,49.162075 275.753601,49.162075 
	C275.753601,52.403641 275.753601,55.137928 275.753601,57.813087 
	C277.465424,58.132339 278.876892,58.395573 280.454163,58.689728 
	C280.454163,68.419350 280.454163,77.906242 280.453613,88.362717 
M375.493378,49.161121 
	C366.047516,49.161121 356.601624,49.161121 347.136719,49.161121 
	C347.136719,52.487003 347.136719,55.236931 347.136719,57.953701 
	C348.871155,58.150433 350.298401,58.312321 351.792114,58.481750 
	C351.792114,69.724930 351.792114,80.655579 351.792114,91.701202 
	C350.060394,91.947029 348.510223,92.167084 347.165680,92.357948 
	C347.165680,95.442955 347.165680,98.186394 347.165680,100.764862 
	C361.543915,100.764862 375.583069,100.764862 389.618164,100.764862 
	C389.618164,95.084229 389.618164,89.810814 389.618164,84.361664 
	C386.972626,84.361664 384.548157,84.361664 381.928223,84.361664 
	C381.533112,86.934898 381.163055,89.344940 380.797607,91.724838 
	C374.790802,91.724838 369.045441,91.724838 363.298218,91.724838 
	C363.298218,87.381157 363.298218,83.315826 363.298218,78.826073 
	C368.333099,78.826073 373.078949,78.826073 377.722839,78.826073 
	C377.722839,76.291130 377.722839,74.205864 377.722839,71.653206 
	C372.713531,71.653206 367.973724,71.653206 363.340881,71.653206 
	C363.340881,66.924149 363.340881,62.683044 363.340881,58.522392 
	C369.408569,58.522392 375.131805,58.522392 380.775909,58.522392 
	C381.221497,61.262947 381.609558,63.649830 381.985718,65.963417 
	C384.778351,65.963417 387.063202,65.963417 389.592346,65.963417 
	C389.592346,60.354927 389.592346,54.952446 389.592346,49.161137 
	C385.078064,49.161137 380.783569,49.161137 375.493378,49.161121 
M191.552521,42.170826 
	C194.326172,42.170826 197.099823,42.170826 201.152527,42.170826 
	C194.719162,30.212421 195.230591,18.849066 200.841980,7.271611 
	C195.226761,7.271611 190.660431,7.271611 185.726395,7.271611 
	C185.964203,9.342014 185.658066,12.353103 186.452881,12.678985 
	C191.773148,14.860358 188.123810,18.699015 188.997849,21.729389 
	C183.924637,21.729389 179.340576,21.729389 173.258133,21.729389 
	C175.073135,16.534180 176.623581,12.096198 178.293533,7.316166 
	C172.917892,7.316166 168.371078,7.316166 162.603973,7.316166 
	C169.179123,19.007345 168.457855,30.441513 162.991867,41.902603 
	C168.627838,41.902603 173.064545,41.902603 177.938019,41.902603 
	C177.764877,39.871864 178.041962,36.778038 177.399704,36.573677 
	C171.219711,34.607296 175.572113,30.468765 174.573288,27.556118 
	C179.800156,27.556118 184.364914,27.556118 190.223236,27.556118 
	C188.496323,32.753551 187.050522,37.104950 185.451065,41.918846 
	C187.667114,42.027718 189.123581,42.099270 191.552521,42.170826 
M202.613922,22.864864 
	C202.310593,30.283648 203.860443,37.093590 211.091797,40.607548 
	C217.217636,43.584305 223.762283,43.479527 229.649490,39.594955 
	C235.987228,35.413097 238.298340,25.411465 235.215118,16.986893 
	C232.512833,9.603152 225.605896,5.882012 216.639374,6.979099 
	C208.598038,7.962986 203.910919,13.033377 202.613922,22.864864 
M344.178497,41.489670 
	C348.708649,41.792770 353.238770,42.095875 357.905853,42.408138 
	C357.905853,40.002640 357.905853,38.380329 357.905853,36.758015 
	C355.684357,35.621506 354.018677,34.223091 353.344330,32.448074 
	C350.694092,25.472342 348.128540,18.445827 345.998260,11.299049 
	C344.939301,7.746502 343.144714,6.948349 339.659515,6.838427 
	C335.848053,6.718212 334.079376,7.888382 332.967865,11.516096 
	C330.831177,18.489601 328.360321,25.372511 325.713104,32.170368 
	C324.951294,34.126690 323.111603,35.663277 321.182343,38.142445 
	C321.182343,38.579086 321.182343,40.183525 321.182343,41.911400 
	C325.822144,41.911400 330.230164,41.911400 335.368164,41.911400 
	C334.820557,39.756832 334.464905,37.975170 333.890350,36.267124 
	C333.624847,35.477833 332.363586,34.436901 332.534058,34.191803 
	C333.180420,33.262440 334.160187,32.085838 335.138153,31.960485 
	C337.593781,31.645737 340.165497,31.554607 342.595154,31.954395 
	C344.275513,32.230892 345.796753,33.474304 347.389069,34.285652 
	C346.814209,34.566090 346.239319,34.846531 345.664429,35.126968 
	C345.132751,36.948959 344.601074,38.770947 344.178497,41.489670 
M380.683807,21.201464 
	C383.342316,17.947697 383.880005,12.516008 389.918121,12.784717 
	C389.816772,10.715372 389.731842,8.981261 389.652985,7.371004 
	C384.338196,7.371004 379.451233,7.371004 373.583252,7.371004 
	C374.612885,10.129003 375.395874,12.226271 376.601562,15.455847 
	C375.473755,17.285059 373.563751,20.382971 371.382507,23.920820 
	C369.200592,20.203527 367.374084,17.091745 365.547577,13.979963 
	C366.064545,14.017461 366.581512,14.054959 367.098511,14.092457 
	C367.671509,11.892498 368.244507,9.692540 368.850769,7.364765 
	C362.971527,7.364765 358.083221,7.364765 353.235504,7.364765 
	C353.235504,9.384398 353.235504,11.027431 353.235504,11.986926 
	C361.386078,15.710937 363.293060,23.782978 367.392029,29.982979 
	C368.278564,31.323914 367.521484,33.751465 367.521484,35.602287 
	C365.778442,35.942146 364.409302,36.209106 362.937988,36.495987 
	C363.052582,38.577980 363.147949,40.311222 363.235565,41.902679 
	C369.030853,41.902679 374.293945,41.902679 379.702179,41.902679 
	C379.702179,39.878952 379.702179,38.130219 379.702179,36.342274 
	C378.099609,36.066895 376.698456,35.826126 375.524139,35.624336 
	C373.683197,29.597744 377.992188,26.065727 380.683807,21.201464 
M76.796684,112.991486 
	C73.201515,111.684853 69.606354,110.378220 65.016655,108.710136 
	C69.500320,116.759560 73.400673,123.761780 77.468254,131.064209 
	C81.396812,123.914421 85.103119,117.169128 88.783623,110.470779 
	C84.752457,111.384659 81.201233,112.189735 76.796684,112.991486 
M326.339355,120.692322 
	C325.529114,122.767075 325.528168,122.823692 328.224457,122.868950 
	C342.979523,123.116615 357.734711,123.400429 372.490967,123.497658 
	C374.987549,123.514114 377.489746,122.682892 379.989349,122.243309 
	C379.931671,121.712730 379.873962,121.182152 379.816284,120.651573 
	C362.278992,120.651573 344.741669,120.651573 326.339355,120.692322 
M179.730713,120.646065 
	C177.597717,120.787376 175.464722,120.928688 173.331726,121.070000 
	C173.393234,121.477768 173.454727,121.885529 173.516235,122.293289 
	C191.684723,122.293289 209.853226,122.293289 228.021713,122.293289 
	C228.024292,121.744308 228.026855,121.195328 228.029434,120.646347 
	C212.244293,120.646347 196.459167,120.646347 179.730713,120.646065 
M87.081757,66.419006 
	C80.481743,71.329109 78.831558,77.440903 82.745117,83.032288 
	C83.728699,82.586014 84.766983,82.165779 85.759422,81.656250 
	C91.610352,78.652351 94.017952,73.156448 91.790428,67.049728 
	C91.524048,66.319443 89.158234,66.354965 87.081757,66.419006 
M259.509735,113.834686 
	C259.268311,115.741226 258.965546,117.642426 258.799377,119.555504 
	C258.525787,122.705231 259.745514,127.432419 255.327072,127.593964 
	C250.443817,127.772491 252.116776,122.869980 251.760208,119.848747 
	C251.525009,117.855942 251.499405,115.838402 251.379944,113.831940 
	C250.778900,113.832085 250.177841,113.832230 249.576797,113.832375 
	C249.576797,117.441994 249.431534,121.059196 249.619186,124.659027 
	C249.793625,128.005234 251.920349,129.782349 255.167892,129.821808 
	C258.505310,129.862350 260.540985,127.782173 260.729858,124.635742 
	C260.942749,121.088837 260.480347,117.501396 259.509735,113.834686 
M245.275024,123.407028 
	C245.275024,120.295952 245.275024,117.184868 245.275024,114.073792 
	C244.730118,114.058632 244.185211,114.043472 243.640305,114.028313 
	C243.352386,115.987373 243.064484,117.946434 242.796539,119.769684 
	C240.417938,119.769684 238.349869,119.769684 236.363144,119.769684 
	C236.082932,117.553284 235.848343,115.697838 235.613754,113.842400 
	C235.269440,113.912888 234.925125,113.983383 234.580811,114.053871 
	C234.580811,119.051903 234.580811,124.049942 234.580811,129.047974 
	C234.952042,129.068344 235.323273,129.088715 235.694504,129.109085 
	C235.934372,126.804245 236.174255,124.499405 236.397980,122.349762 
	C238.825897,122.349762 240.917053,122.349762 242.968903,122.349762 
	C243.179993,124.783272 243.363693,126.901123 243.547394,129.018982 
	C244.032593,128.990219 244.517776,128.961456 245.002960,128.932709 
	C245.093658,127.407043 245.184372,125.881378 245.275024,123.407028 
M304.067383,123.990631 
	C304.067383,120.670692 304.067383,117.350746 304.067383,114.030807 
	C303.585938,114.011864 303.104523,113.992920 302.623077,113.973976 
	C302.444458,115.132538 302.350769,116.312019 302.071533,117.445801 
	C301.183197,121.052917 304.489990,127.639168 298.412140,127.499023 
	C292.592072,127.364830 295.876862,120.839348 295.001648,117.175873 
	C294.741913,116.088783 294.600433,114.973450 294.404785,113.871048 
	C293.909241,113.906265 293.413666,113.941475 292.918091,113.976685 
	C292.918091,117.015564 292.903229,120.054535 292.922119,123.093300 
	C292.942596,126.387199 293.925446,129.124542 297.652924,129.602951 
	C301.155518,130.052490 303.358612,128.412613 304.067383,123.990631 
z"/>
<path fill="#F1F1F1" opacity="1.000000" stroke="none" 
	d="
M66.532394,1.000000 
	C67.001183,2.022505 67.002365,3.045010 66.545464,4.522621 
	C61.388058,4.935831 56.688736,4.893936 51.938416,4.533970 
	C51.258282,3.143933 50.629143,2.071966 50.000000,1.000000 
	C55.354931,1.000000 60.709858,1.000000 66.532394,1.000000 
z"/>
<path fill="#FDFDFD" opacity="1.000000" stroke="none" 
	d="
M49.533882,1.000000 
	C50.629143,2.071966 51.258282,3.143933 51.475559,4.599766 
	C45.713070,4.932792 40.362446,4.881953 35.008118,4.448028 
	C35.002945,3.043294 35.001472,2.021647 35.000000,1.000000 
	C39.689255,1.000000 44.378513,1.000000 49.533882,1.000000 
z"/>
<path fill="#EAEAEA" opacity="1.000000" stroke="none" 
	d="
M310.000793,8.007357 
	C309.336884,5.920230 308.672943,3.833107 308.004517,1.372992 
	C309.066681,1.000000 310.133331,1.000000 311.600037,0.999995 
	C313.460205,3.630102 314.997040,6.221776 316.344421,8.908465 
	C316.916168,10.048512 317.090576,11.387815 316.865723,12.699406 
	C314.190857,11.177294 312.095825,9.592327 310.000793,8.007357 
z"/>
<path fill="#F1F1F1" opacity="1.000000" stroke="none" 
	d="
M378.416656,138.000000 
	C377.243958,136.378860 376.280457,134.815369 375.808136,133.115387 
	C375.515747,132.063019 375.969910,130.803238 376.088928,129.636566 
	C377.073822,129.956863 378.466522,129.975830 378.967529,130.653732 
	C380.495361,132.721146 381.679596,135.042450 382.998779,137.632477 
	C381.611115,138.000000 380.222198,138.000000 378.416656,138.000000 
z"/>
<path fill="#F1F1F1" opacity="1.000000" stroke="none" 
	d="
M34.550018,1.000000 
	C35.001472,2.021647 35.002945,3.043294 34.567162,4.521000 
	C31.749178,4.924341 29.368452,4.871623 26.987728,4.818905 
	C26.677919,3.766360 26.368109,2.713814 26.029150,1.330634 
	C28.700014,1.000000 31.400026,1.000000 34.550018,1.000000 
z"/>
<path fill="#F1F1F1" opacity="1.000000" stroke="none" 
	d="
M367.437500,138.000000 
	C368.128357,136.376648 369.256714,134.753311 370.385071,133.129974 
	C371.566589,134.512680 372.748108,135.895386 373.964813,137.639038 
	C371.958344,138.000000 369.916656,138.000000 367.437500,138.000000 
z"/>
<path fill="#333333" opacity="1.000000" stroke="none" 
	d="
M26.525717,4.895997 
	C29.368452,4.871623 31.749178,4.924341 34.570862,4.904086 
	C40.362446,4.881953 45.713070,4.932792 51.526558,4.917836 
	C56.688736,4.893936 61.388058,4.935831 66.549515,4.906028 
	C93.481514,4.834330 119.951370,4.834330 147.432312,4.834330 
	C137.682922,22.440815 128.279343,39.422829 118.332352,57.386173 
	C118.110275,54.783226 118.094711,53.135044 117.811180,51.534336 
	C116.657959,45.023918 113.011787,40.548649 107.088112,37.483746 
	C99.349884,33.479992 91.824631,29.057613 84.276001,24.697184 
	C80.050209,22.256178 75.986778,22.225142 71.779106,24.666040 
	C62.421432,30.094500 53.096729,35.586124 43.623280,40.806454 
	C37.177639,44.358318 37.203354,50.397945 36.822815,57.834618 
	C26.783306,39.760811 17.320198,22.724684 7.459669,4.973089 
	C14.212142,4.973089 20.137924,4.973089 26.525717,4.895997 
z"/>
<path fill="#393939" opacity="1.000000" stroke="none" 
	d="
M280.453888,87.877922 
	C280.454163,77.906242 280.454163,68.419350 280.454163,58.689728 
	C278.876892,58.395573 277.465424,58.132339 275.753601,57.813087 
	C275.753601,55.137928 275.753601,52.403641 275.753601,49.162075 
	C282.315125,49.162075 288.768066,48.985149 295.193970,49.322826 
	C296.370697,49.384663 297.927338,51.349400 298.474884,52.759487 
	C301.868347,61.498402 305.023682,70.329788 308.694153,80.317131 
	C312.073669,71.268440 315.482117,63.518665 317.799072,55.455261 
	C319.346100,50.071316 321.966309,48.488594 327.252777,49.047703 
	C331.985596,49.548260 336.813171,49.153038 341.796478,49.153038 
	C341.796478,52.255726 341.796478,54.865555 341.796478,57.841709 
	C340.468201,58.025986 339.076996,58.218990 337.346863,58.459019 
	C337.346863,69.321640 337.346863,80.242889 337.346863,91.582161 
	C338.557007,91.790154 340.082977,92.052429 341.798340,92.347260 
	C341.798340,95.132408 341.798340,97.887131 341.798340,100.911026 
	C335.071655,100.911026 328.477264,100.911026 321.516327,100.911026 
	C321.516327,98.240158 321.516327,95.504097 321.516327,92.361671 
	C322.675323,92.150909 324.053223,91.900345 325.615723,91.616211 
	C325.615723,81.746384 325.615723,71.951157 325.615723,62.155937 
	C325.437469,62.061726 325.259216,61.967514 325.080963,61.873302 
	C321.224609,72.580872 317.368256,83.288437 313.555176,93.875893 
	C304.076141,94.662224 304.070343,94.664276 301.068878,86.210815 
	C298.304504,78.425201 295.554474,70.634499 292.214783,62.909309 
	C292.214783,72.359886 292.214783,81.810455 292.214783,91.610168 
	C293.311707,91.833946 294.672607,92.111580 296.040955,92.390732 
	C296.040955,95.293053 296.040955,97.921585 296.040955,100.863037 
	C289.331024,100.863037 282.746979,100.863037 275.806183,100.863037 
	C275.806183,98.194183 275.806183,95.458733 275.806183,92.317238 
	C277.731995,91.720604 281.500275,92.652206 280.453888,87.877922 
z"/>
<path fill="#3A3A3A" opacity="1.000000" stroke="none" 
	d="
M213.025635,66.003632 
	C213.025635,74.471611 213.025635,82.939583 213.025635,91.730995 
	C214.535248,91.874557 215.959518,92.010002 217.701233,92.175629 
	C217.701233,94.899582 217.701233,97.658684 217.701233,100.802948 
	C211.016678,100.802948 204.157028,100.802948 197.055237,100.802948 
	C197.055237,97.992760 197.055237,95.245140 197.055237,92.173233 
	C198.547760,92.040024 199.958893,91.914078 201.583405,91.769089 
	C201.583405,87.624809 201.583405,83.685036 201.583405,79.377396 
	C194.548340,79.377396 187.494705,79.377396 180.143661,79.377396 
	C180.143661,83.237488 180.143661,87.167999 180.143661,91.525681 
	C181.379440,91.766495 182.894730,92.061783 184.620819,92.398140 
	C184.620819,95.186386 184.620819,97.929817 184.620819,100.927612 
	C177.625610,100.927612 170.856949,100.927612 163.766449,100.927612 
	C163.766449,98.157249 163.766449,95.406891 163.766449,92.273270 
	C165.119400,92.099518 166.523956,91.919136 168.178101,91.706703 
	C168.178101,80.685066 168.178101,69.760963 168.178101,58.589493 
	C166.786331,58.348801 165.357727,58.101742 163.702606,57.815506 
	C163.702606,55.066200 163.702606,52.314350 163.702606,49.356133 
	C170.722519,49.356133 177.489349,49.356133 184.554260,49.356133 
	C184.554260,52.151627 184.554260,54.882809 184.554260,57.902267 
	C183.099274,58.074944 181.685425,58.242741 180.087692,58.432362 
	C180.087692,62.592476 180.087692,66.530106 180.087692,70.810417 
	C187.139069,70.810417 194.196045,70.810417 201.538086,70.810417 
	C201.538086,66.836174 201.538086,62.893917 201.538086,58.600925 
	C200.217361,58.374557 198.678024,58.110725 197.004532,57.823898 
	C197.004532,55.043507 197.004532,52.417877 197.004532,49.470039 
	C203.809845,49.470039 210.559540,49.470039 217.936905,49.470039 
	C216.490707,52.304291 221.236908,56.343384 214.634125,58.243694 
	C213.526443,60.855885 213.276047,63.429760 213.025635,66.003632 
z"/>
<path fill="#393939" opacity="1.000000" stroke="none" 
	d="
M261.006012,51.997738 
	C273.262054,62.582180 275.768646,80.772911 266.578400,92.597008 
	C259.273254,101.995728 249.361572,103.396553 238.744293,100.758163 
	C229.109039,98.363808 223.817276,91.359749 221.971664,81.763306 
	C221.472473,79.167793 221.422882,76.485817 221.270966,73.096672 
	C221.523788,70.892403 221.672562,69.434982 221.821320,67.977570 
	C224.761795,63.153400 227.702255,58.329227 231.096161,53.143955 
	C232.040482,52.423569 232.531342,52.064285 233.367218,51.627205 
	C237.133453,50.590618 240.554642,49.631824 244.427643,48.726112 
	C250.254959,49.852043 255.630478,50.924889 261.006012,51.997738 
M242.624847,58.877121 
	C233.767715,62.399387 230.055405,72.354500 233.737015,82.711281 
	C235.933655,88.890610 240.923615,92.317474 247.421188,92.108902 
	C253.299652,91.920197 258.205902,88.341690 259.581787,82.236450 
	C260.434235,78.453911 260.697479,74.291740 260.097168,70.477516 
	C258.622101,61.105560 252.877563,57.312412 242.624847,58.877121 
z"/>
<path fill="#363636" opacity="1.000000" stroke="none" 
	d="
M375.991211,49.161129 
	C380.783569,49.161137 385.078064,49.161137 389.592346,49.161137 
	C389.592346,54.952446 389.592346,60.354927 389.592346,65.963417 
	C387.063202,65.963417 384.778351,65.963417 381.985718,65.963417 
	C381.609558,63.649830 381.221497,61.262947 380.775909,58.522392 
	C375.131805,58.522392 369.408569,58.522392 363.340881,58.522392 
	C363.340881,62.683044 363.340881,66.924149 363.340881,71.653206 
	C367.973724,71.653206 372.713531,71.653206 377.722839,71.653206 
	C377.722839,74.205864 377.722839,76.291130 377.722839,78.826073 
	C373.078949,78.826073 368.333099,78.826073 363.298218,78.826073 
	C363.298218,83.315826 363.298218,87.381157 363.298218,91.724838 
	C369.045441,91.724838 374.790802,91.724838 380.797607,91.724838 
	C381.163055,89.344940 381.533112,86.934898 381.928223,84.361664 
	C384.548157,84.361664 386.972626,84.361664 389.618164,84.361664 
	C389.618164,89.810814 389.618164,95.084229 389.618164,100.764862 
	C375.583069,100.764862 361.543915,100.764862 347.165680,100.764862 
	C347.165680,98.186394 347.165680,95.442955 347.165680,92.357948 
	C348.510223,92.167084 350.060394,91.947029 351.792114,91.701202 
	C351.792114,80.655579 351.792114,69.724930 351.792114,58.481750 
	C350.298401,58.312321 348.871155,58.150433 347.136719,57.953701 
	C347.136719,55.236931 347.136719,52.487003 347.136719,49.161121 
	C356.601624,49.161121 366.047516,49.161121 375.991211,49.161129 
z"/>
<path fill="#363636" opacity="1.000000" stroke="none" 
	d="
M110.252708,49.906929 
	C112.176773,48.349331 113.178154,48.639057 113.173935,51.283714 
	C113.154594,63.419933 113.207161,75.556595 113.094749,87.691803 
	C113.084496,88.798546 112.383278,90.398491 111.500534,90.921570 
	C100.691719,97.326515 89.788994,103.572990 78.165955,110.290871 
	C78.165955,104.152428 78.002182,98.759674 78.287994,93.390862 
	C78.354477,92.142014 79.706734,90.591499 80.887444,89.838326 
	C85.220734,87.074188 89.845284,84.757645 94.106644,81.895142 
	C95.429115,81.006798 96.635628,78.953705 96.712257,77.376389 
	C97.026512,70.907478 96.884300,64.416389 97.411278,57.466793 
	C98.617943,55.996147 99.323395,54.992180 100.360542,54.022552 
	C103.879066,52.673569 107.065887,51.290249 110.252708,49.906929 
z"/>
<path fill="#32C1C3" opacity="1.000000" stroke="none" 
	d="
M57.936485,56.312813 
	C57.957348,62.630726 58.210800,68.959816 57.907951,75.262169 
	C57.738350,78.791626 58.994541,80.656410 62.072231,82.156540 
	C66.243896,84.189903 70.247429,86.606026 74.156609,89.117126 
	C75.338142,89.876099 76.659119,91.457016 76.728714,92.726547 
	C77.016708,97.979340 76.849510,103.257095 76.849510,109.525436 
	C68.117401,104.472954 60.447372,99.166466 52.075245,95.435448 
	C43.726978,91.715065 40.756943,86.548210 41.653141,77.473427 
	C42.596607,67.920052 41.922276,58.206909 42.456520,48.200558 
	C47.950977,50.662632 52.943733,53.487720 57.936485,56.312813 
z"/>
<path fill="#373737" opacity="1.000000" stroke="none" 
	d="
M191.066284,42.170822 
	C189.123581,42.099270 187.667114,42.027718 185.451065,41.918846 
	C187.050522,37.104950 188.496323,32.753551 190.223236,27.556118 
	C184.364914,27.556118 179.800156,27.556118 174.573288,27.556118 
	C175.572113,30.468765 171.219711,34.607296 177.399704,36.573677 
	C178.041962,36.778038 177.764877,39.871864 177.938019,41.902603 
	C173.064545,41.902603 168.627838,41.902603 162.991867,41.902603 
	C168.457855,30.441513 169.179123,19.007345 162.603973,7.316166 
	C168.371078,7.316166 172.917892,7.316166 178.293533,7.316166 
	C176.623581,12.096198 175.073135,16.534180 173.258133,21.729389 
	C179.340576,21.729389 183.924637,21.729389 188.997849,21.729389 
	C188.123810,18.699015 191.773148,14.860358 186.452881,12.678985 
	C185.658066,12.353103 185.964203,9.342014 185.726395,7.271611 
	C190.660431,7.271611 195.226761,7.271611 200.841980,7.271611 
	C195.230591,18.849066 194.719162,30.212421 201.152527,42.170826 
	C197.099823,42.170826 194.326172,42.170826 191.066284,42.170822 
z"/>
<path fill="#373737" opacity="1.000000" stroke="none" 
	d="
M110.125000,49.581192 
	C107.065887,51.290249 103.879066,52.673569 100.051590,54.131676 
	C98.174057,55.060436 96.937180,55.914406 95.700302,56.768379 
	C89.648209,60.183460 83.596115,63.598541 76.880852,67.041687 
	C71.079628,64.265564 65.941574,61.461384 60.803520,58.657200 
	C61.723442,57.799919 62.524643,56.741959 63.581757,56.116570 
	C73.553383,50.217381 83.619179,44.475567 93.533768,38.483116 
	C95.848015,37.084362 97.491928,37.012547 99.761681,38.518246 
	C103.890007,41.256882 108.267776,43.619495 112.594421,46.170250 
	C111.652550,47.289135 110.824921,48.272293 110.125000,49.581192 
z"/>
<path fill="#3A3A3A" opacity="1.000000" stroke="none" 
	d="
M309.590515,7.981469 
	C312.095825,9.592327 314.190857,11.177294 316.585602,12.894547 
	C317.921387,16.660307 319.640503,20.252270 319.864349,23.935112 
	C320.513214,34.611519 314.403351,41.345367 303.746063,42.001476 
	C298.115326,42.348129 292.445648,42.062805 286.283783,42.062805 
	C286.180481,40.698147 286.074799,39.302429 286.090546,37.079918 
	C287.234436,35.126522 289.074432,34.043358 289.137024,32.865761 
	C289.399323,27.927780 289.129364,22.961519 289.054352,18.005617 
	C289.196228,15.857484 290.355225,13.401766 286.603180,12.774432 
	C286.063751,12.684243 286.075012,9.300441 285.769928,6.971360 
	C287.597107,6.971360 288.856873,6.971360 290.993378,6.967761 
	C294.251373,6.912187 296.632660,6.860212 299.013916,6.808239 
	C302.402710,7.190685 305.791473,7.573131 309.590515,7.981469 
M304.326202,13.545075 
	C301.957611,13.403714 299.588989,13.262353 297.137146,13.116023 
	C297.137146,18.186682 297.137146,22.600643 296.977448,27.917761 
	C296.977448,30.508087 296.977448,33.098415 296.977448,35.622292 
	C306.694336,36.538151 310.891144,34.336777 312.061951,27.996183 
	C313.464508,20.400555 311.064606,15.645058 304.326202,13.545075 
z"/>
<path fill="#373737" opacity="1.000000" stroke="none" 
	d="
M58.290779,56.195324 
	C52.943733,53.487720 47.950977,50.662632 42.621933,47.732918 
	C43.208931,46.772694 44.013355,45.714073 45.074005,45.093098 
	C54.943130,39.315102 64.913383,33.707409 74.716957,27.821558 
	C77.196022,26.333183 79.019249,26.375978 81.388008,27.884113 
	C85.574860,30.549782 89.963562,32.898403 94.530655,35.531273 
	C82.444115,42.451511 70.544594,49.264675 58.290779,56.195324 
z"/>
<path fill="#383838" opacity="1.000000" stroke="none" 
	d="
M202.658524,22.459911 
	C203.910919,13.033377 208.598038,7.962986 216.639374,6.979099 
	C225.605896,5.882012 232.512833,9.603152 235.215118,16.986893 
	C238.298340,25.411465 235.987228,35.413097 229.649490,39.594955 
	C223.762283,43.479527 217.217636,43.584305 211.091797,40.607548 
	C203.860443,37.093590 202.310593,30.283648 202.658524,22.459911 
M217.136032,35.706738 
	C221.251526,36.454708 224.850021,35.595673 227.078705,31.818758 
	C229.714325,27.352154 229.815720,22.603912 227.417313,18.016310 
	C225.304977,13.975865 221.761673,12.663725 217.346176,13.606987 
	C212.744888,14.589938 210.861984,17.970198 210.159470,22.135561 
	C209.158447,28.070807 211.461426,32.758415 217.136032,35.706738 
z"/>
<path fill="#393939" opacity="1.000000" stroke="none" 
	d="
M344.123962,41.041302 
	C344.601074,38.770947 345.132751,36.948959 345.664429,35.126968 
	C346.239319,34.846531 346.814209,34.566090 347.389069,34.285652 
	C345.796753,33.474304 344.275513,32.230892 342.595154,31.954395 
	C340.165497,31.554607 337.593781,31.645737 335.138153,31.960485 
	C334.160187,32.085838 333.180420,33.262440 332.534058,34.191803 
	C332.363586,34.436901 333.624847,35.477833 333.890350,36.267124 
	C334.464905,37.975170 334.820557,39.756832 335.368164,41.911400 
	C330.230164,41.911400 325.822144,41.911400 321.182343,41.911400 
	C321.182343,40.183525 321.182343,38.579086 321.182343,38.142445 
	C323.111603,35.663277 324.951294,34.126690 325.713104,32.170368 
	C328.360321,25.372511 330.831177,18.489601 332.967865,11.516096 
	C334.079376,7.888382 335.848053,6.718212 339.659515,6.838427 
	C343.144714,6.948349 344.939301,7.746502 345.998260,11.299049 
	C348.128540,18.445827 350.694092,25.472342 353.344330,32.448074 
	C354.018677,34.223091 355.684357,35.621506 357.905853,36.758015 
	C357.905853,38.380329 357.905853,40.002640 357.905853,42.408138 
	C353.238770,42.095875 348.708649,41.792770 344.123962,41.041302 
M337.488800,19.000380 
	C336.691406,21.387104 335.894012,23.773829 335.029449,26.361629 
	C338.298248,26.361629 340.868866,26.361629 343.979401,26.361629 
	C342.501526,22.042900 341.151489,18.097754 339.550049,13.417933 
	C338.777710,15.551826 338.281128,16.923870 337.488800,19.000380 
z"/>
<path fill="#383838" opacity="1.000000" stroke="none" 
	d="
M380.467468,21.495522 
	C377.992188,26.065727 373.683197,29.597744 375.524139,35.624336 
	C376.698456,35.826126 378.099609,36.066895 379.702179,36.342274 
	C379.702179,38.130219 379.702179,39.878952 379.702179,41.902679 
	C374.293945,41.902679 369.030853,41.902679 363.235565,41.902679 
	C363.147949,40.311222 363.052582,38.577980 362.937988,36.495987 
	C364.409302,36.209106 365.778442,35.942146 367.521484,35.602287 
	C367.521484,33.751465 368.278564,31.323914 367.392029,29.982979 
	C363.293060,23.782978 361.386078,15.710937 353.235504,11.986926 
	C353.235504,11.027431 353.235504,9.384398 353.235504,7.364765 
	C358.083221,7.364765 362.971527,7.364765 368.850769,7.364765 
	C368.244507,9.692540 367.671509,11.892498 367.098511,14.092457 
	C366.581512,14.054959 366.064545,14.017461 365.547577,13.979963 
	C367.374084,17.091745 369.200592,20.203527 371.382507,23.920820 
	C373.563751,20.382971 375.473755,17.285059 376.601562,15.455847 
	C375.395874,12.226271 374.612885,10.129003 373.583252,7.371004 
	C379.451233,7.371004 384.338196,7.371004 389.652985,7.371004 
	C389.731842,8.981261 389.816772,10.715372 389.918121,12.784717 
	C383.880005,12.516008 383.342316,17.947697 380.467468,21.495522 
z"/>
<path fill="#383838" opacity="1.000000" stroke="none" 
	d="
M239.015854,41.994396 
	C239.330154,39.573853 237.387711,36.209793 241.801239,35.442692 
	C242.066620,35.396561 242.199997,33.947536 242.204987,33.150108 
	C242.239441,27.650753 242.352753,22.145664 242.122879,16.655727 
	C242.072235,15.446482 240.555496,14.365669 240.055054,13.091691 
	C239.390167,11.399043 239.059906,9.574939 238.460907,7.341345 
	C243.607178,7.341345 248.157425,7.341345 254.376434,7.341345 
	C252.824249,9.840199 251.599747,11.579019 250.639893,13.453361 
	C250.147964,14.413949 249.939499,15.614817 249.927917,16.710529 
	C249.862793,22.872248 249.896515,29.035011 249.896515,35.592743 
	C252.594757,35.592743 255.157303,35.592743 258.122589,35.592743 
	C258.418274,34.073494 258.758514,32.325127 259.160614,30.259092 
	C260.926849,30.259092 262.834381,30.259092 265.152557,30.259092 
	C265.210785,31.503408 265.270050,32.770248 265.293152,34.883759 
	C265.347992,36.840008 265.438995,37.949593 265.432129,39.501724 
	C264.368866,40.687798 263.477386,41.916168 262.423096,42.076969 
	C260.001953,42.446220 257.501495,42.295334 254.623337,42.261398 
	C252.815155,42.216721 251.416870,42.266220 249.622620,42.217499 
	C248.145370,42.177074 247.064087,42.234882 245.552216,42.221405 
	C243.086349,42.098209 241.051102,42.046303 239.015854,41.994396 
z"/>
<path fill="#38C2C5" opacity="1.000000" stroke="none" 
	d="
M60.574020,59.031288 
	C65.941574,61.461384 71.079628,64.265564 76.549271,67.196716 
	C76.880859,73.732124 76.880859,80.140564 76.880859,87.592300 
	C71.248398,84.337585 66.354126,81.677139 61.683453,78.669464 
	C60.745556,78.065514 60.274464,76.149757 60.245781,74.824608 
	C60.134613,69.687981 60.289005,64.545609 60.574020,59.031288 
z"/>
<path fill="#373737" opacity="1.000000" stroke="none" 
	d="
M283.058228,37.003662 
	C282.924957,38.477840 282.791687,39.952019 282.585510,42.232826 
	C279.429688,42.232826 276.187195,42.232826 272.117432,42.211937 
	C270.267670,42.004196 269.245178,41.817345 268.286926,41.307819 
	C268.282104,40.335793 268.213013,39.686440 268.290894,38.745892 
	C268.620026,37.617153 268.802124,36.779617 268.984222,35.942085 
	C269.955658,35.102444 271.729736,34.298054 271.768433,33.417458 
	C272.022522,27.631279 271.935913,21.828279 271.868774,16.031834 
	C271.858429,15.139480 271.559021,14.133880 271.074738,13.387294 
	C269.984589,11.706653 268.694702,10.155598 267.486084,8.551800 
	C267.835510,8.163320 268.184967,7.774840 268.534393,7.386360 
	C272.883057,7.386360 277.231750,7.386360 282.067505,7.386360 
	C282.067505,8.979027 282.067505,10.584277 281.645691,12.664995 
	C280.567291,14.030664 279.363953,14.907363 279.341614,15.813228 
	C279.178955,22.400116 279.254089,28.992876 279.254089,35.282490 
	C280.761261,35.964405 281.909760,36.484035 283.058228,37.003662 
z"/>
<path fill="#373737" opacity="1.000000" stroke="none" 
	d="
M77.223343,112.993149 
	C81.201233,112.189735 84.752457,111.384659 88.783623,110.470779 
	C85.103119,117.169128 81.396812,123.914421 77.468254,131.064209 
	C73.400673,123.761780 69.500320,116.759560 65.016655,108.710136 
	C69.606354,110.378220 73.201515,111.684853 77.223343,112.993149 
z"/>
<path fill="#F1F1F1" opacity="1.000000" stroke="none" 
	d="
M283.404999,37.003098 
	C281.909760,36.484035 280.761261,35.964405 279.254089,35.282490 
	C279.254089,28.992876 279.178955,22.400116 279.341614,15.813228 
	C279.363953,14.907363 280.567291,14.030664 281.634552,13.119360 
	C284.150238,14.713637 286.255249,16.329020 288.707336,17.975010 
	C289.129364,22.961519 289.399323,27.927780 289.137024,32.865761 
	C289.074432,34.043358 287.234436,35.126522 286.022156,36.631863 
	C285.138824,37.007915 284.445312,37.005226 283.404999,37.003098 
z"/>
<path fill="#EAEAEA" opacity="1.000000" stroke="none" 
	d="
M268.222687,41.630493 
	C269.245178,41.817345 270.267670,42.004196 271.667786,42.299110 
	C271.514099,48.776714 265.943787,49.535149 261.334869,51.864029 
	C255.630478,50.924889 250.254959,49.852043 244.416718,48.368465 
	C242.457977,46.996277 240.592468,44.930397 239.536316,45.283733 
	C236.557220,46.280411 233.033142,47.418034 233.022202,51.705006 
	C232.531342,52.064285 232.040482,52.423569 231.251114,52.843269 
	C228.848679,49.219891 231.398026,47.016171 233.707550,44.959030 
	C235.020477,43.789558 236.808563,43.153530 238.699265,42.135834 
	C241.051102,42.046303 243.086349,42.098209 245.627899,42.539257 
	C247.429016,42.724171 248.723801,42.519947 250.018600,42.315720 
	C251.416870,42.266220 252.815155,42.216721 254.680603,42.596062 
	C257.551270,44.671394 259.838379,47.418995 262.387421,47.688377 
	C265.645813,48.032722 268.163605,45.497025 268.222687,41.630493 
z"/>
<path fill="#555555" opacity="1.000000" stroke="none" 
	d="
M326.771851,120.671951 
	C344.741669,120.651573 362.278992,120.651573 379.816284,120.651573 
	C379.873962,121.182152 379.931671,121.712730 379.989349,122.243309 
	C377.489746,122.682892 374.987549,123.514114 372.490967,123.497658 
	C357.734711,123.400429 342.979523,123.116615 328.224457,122.868950 
	C325.528168,122.823692 325.529114,122.767075 326.771851,120.671951 
z"/>
<path fill="#555555" opacity="1.000000" stroke="none" 
	d="
M180.202362,120.646210 
	C196.459167,120.646347 212.244293,120.646347 228.029434,120.646347 
	C228.026855,121.195328 228.024292,121.744308 228.021713,122.293289 
	C209.853226,122.293289 191.684723,122.293289 173.516235,122.293289 
	C173.454727,121.885529 173.393234,121.477768 173.331726,121.070000 
	C175.464722,120.928688 177.597717,120.787376 180.202362,120.646210 
z"/>
<path fill="#333333" opacity="1.000000" stroke="none" 
	d="
M87.423645,66.227264 
	C89.158234,66.354965 91.524048,66.319443 91.790428,67.049728 
	C94.017952,73.156448 91.610352,78.652351 85.759422,81.656250 
	C84.766983,82.165779 83.728699,82.586014 82.745117,83.032288 
	C78.831558,77.440903 80.481743,71.329109 87.423645,66.227264 
z"/>
<path fill="#616161" opacity="1.000000" stroke="none" 
	d="
M259.910706,113.883133 
	C260.480347,117.501396 260.942749,121.088837 260.729858,124.635742 
	C260.540985,127.782173 258.505310,129.862350 255.167892,129.821808 
	C251.920349,129.782349 249.793625,128.005234 249.619186,124.659027 
	C249.431534,121.059196 249.576797,117.441994 249.576797,113.832375 
	C250.177841,113.832230 250.778900,113.832085 251.379944,113.831940 
	C251.499405,115.838402 251.525009,117.855942 251.760208,119.848747 
	C252.116776,122.869980 250.443817,127.772491 255.327072,127.593964 
	C259.745514,127.432419 258.525787,122.705231 258.799377,119.555504 
	C258.965546,117.642426 259.268311,115.741226 259.910706,113.883133 
z"/>
<path fill="#555555" opacity="1.000000" stroke="none" 
	d="
M315.976379,115.931351 
	C314.383667,115.774994 312.790955,115.618645 310.799500,115.423149 
	C310.799500,117.017769 310.799500,118.374733 310.799500,119.543694 
	C312.997162,120.109383 315.016907,120.629272 317.088165,121.796356 
	C317.090210,122.620216 317.040741,122.796898 316.612030,122.909134 
	C314.386993,122.580200 312.541168,122.315727 310.769226,122.061836 
	C309.352264,128.040115 312.018433,128.347305 316.135651,127.231812 
	C316.618835,127.655441 316.985413,127.799103 317.352020,127.942764 
	C314.468048,128.534042 311.584045,129.125320 308.339722,129.790482 
	C308.339722,123.949959 308.339722,119.183029 308.339722,113.911896 
	C310.627411,113.911896 312.885895,113.911896 315.563904,114.293823 
	C315.981079,115.094276 315.978729,115.512817 315.976379,115.931351 
z"/>
<path fill="#464646" opacity="1.000000" stroke="none" 
	d="
M245.275055,123.881378 
	C245.184372,125.881378 245.093658,127.407043 245.002960,128.932709 
	C244.517776,128.961456 244.032593,128.990219 243.547394,129.018982 
	C243.363693,126.901123 243.179993,124.783272 242.968903,122.349762 
	C240.917053,122.349762 238.825897,122.349762 236.397980,122.349762 
	C236.174255,124.499405 235.934372,126.804245 235.694504,129.109085 
	C235.323273,129.088715 234.952042,129.068344 234.580811,129.047974 
	C234.580811,124.049942 234.580811,119.051903 234.580811,114.053871 
	C234.925125,113.983383 235.269440,113.912888 235.613754,113.842400 
	C235.848343,115.697838 236.082932,117.553284 236.363144,119.769684 
	C238.349869,119.769684 240.417938,119.769684 242.796539,119.769684 
	C243.064484,117.946434 243.352386,115.987373 243.640305,114.028313 
	C244.185211,114.043472 244.730118,114.058632 245.275024,114.073792 
	C245.275024,117.184868 245.275024,120.295952 245.275055,123.881378 
z"/>
<path fill="#464646" opacity="1.000000" stroke="none" 
	d="
M304.034485,124.424835 
	C303.358612,128.412613 301.155518,130.052490 297.652924,129.602951 
	C293.925446,129.124542 292.942596,126.387199 292.922119,123.093300 
	C292.903229,120.054535 292.918091,117.015564 292.918091,113.976685 
	C293.413666,113.941475 293.909241,113.906265 294.404785,113.871048 
	C294.600433,114.973450 294.741913,116.088783 295.001648,117.175873 
	C295.876862,120.839348 292.592072,127.364830 298.412140,127.499023 
	C304.489990,127.639168 301.183197,121.052917 302.071533,117.445801 
	C302.350769,116.312019 302.444458,115.132538 302.623077,113.973976 
	C303.104523,113.992920 303.585938,114.011864 304.067383,114.030807 
	C304.067383,117.350746 304.067383,120.670692 304.034485,124.424835 
z"/>
<path fill="#ECECEC" opacity="1.000000" stroke="none" 
	d="
M289.020142,117.984222 
	C288.932709,121.290009 288.845245,124.595795 288.282593,127.609329 
	C285.647461,127.479233 283.487518,127.641380 281.223572,127.811340 
	C281.223572,125.611717 281.223572,123.896095 281.223572,122.745537 
	C283.113403,121.932022 284.569672,121.305130 286.118256,120.456039 
	C286.149384,119.492516 286.088196,118.751190 286.400940,118.007294 
	C287.523285,117.997887 288.271729,117.991058 289.020142,117.984222 
z"/>
<path fill="#ECECEC" opacity="1.000000" stroke="none" 
	d="
M275.019714,117.985184 
	C274.931122,121.290176 274.842560,124.595177 274.279785,127.608017 
	C271.642761,127.477104 269.479919,127.638336 267.223633,127.806534 
	C267.223633,125.608040 267.223633,123.889244 267.223633,122.755234 
	C269.124084,121.928543 270.576111,121.296898 272.119690,120.443939 
	C272.147400,119.484314 272.083557,118.746017 272.394501,118.005264 
	C273.519440,117.996933 274.269562,117.991058 275.019714,117.985184 
z"/>
<path fill="#EAEAEA" opacity="1.000000" stroke="none" 
	d="
M221.483994,67.936630 
	C221.672562,69.434982 221.523788,70.892403 221.203323,72.673248 
	C218.594528,70.685051 216.157425,68.373421 213.372986,66.032715 
	C213.276047,63.429760 213.526443,60.855885 214.235199,58.319901 
	C216.844574,61.537086 218.995621,64.716385 221.483994,67.936630 
z"/>
<path fill="#393939" opacity="1.000000" stroke="none" 
	d="
M272.028168,120.665253 
	C270.576111,121.296898 269.124084,121.928543 267.223633,122.755234 
	C267.223633,123.889244 267.223633,125.608040 267.223633,127.806534 
	C269.479919,127.638336 271.642761,127.477104 273.970917,127.664711 
	C271.306427,128.549698 268.476593,129.085846 265.253571,129.696487 
	C265.253571,124.098457 265.253571,119.202629 265.253571,113.913139 
	C267.259155,113.913139 269.188660,113.913139 271.662292,114.239594 
	C272.150024,114.759476 272.093628,114.952904 271.604980,115.136543 
	C269.900604,115.217484 268.628448,115.308228 267.301514,115.402885 
	C267.301514,117.403496 267.301514,119.127022 267.301514,121.100540 
	C269.100037,120.934914 270.564117,120.800079 272.028168,120.665253 
z"/>
<path fill="#383838" opacity="1.000000" stroke="none" 
	d="
M286.025940,120.678238 
	C284.569672,121.305130 283.113403,121.932022 281.223572,122.745537 
	C281.223572,123.896095 281.223572,125.611717 281.223572,127.811340 
	C283.487518,127.641380 285.647461,127.479233 287.973358,127.665436 
	C285.306732,128.550003 282.474121,129.086197 279.264771,129.693710 
	C279.264771,124.100525 279.264771,119.205803 279.264771,113.911217 
	C281.265564,113.911217 283.192291,113.911217 285.660034,114.237053 
	C286.145935,114.755096 286.090820,114.947311 285.603760,115.130981 
	C283.900848,115.217987 282.629822,115.313538 281.304626,115.413162 
	C281.304626,117.404251 281.304626,119.127861 281.304626,121.096863 
	C283.097748,120.937874 284.561829,120.808052 286.025940,120.678238 
z"/>
<path fill="#F1F1F1" opacity="1.000000" stroke="none" 
	d="
M298.945557,6.481400 
	C296.632660,6.860212 294.251373,6.912187 291.428406,6.895450 
	C293.382172,2.226740 293.904449,2.182250 298.945557,6.481400 
z"/>
<path fill="#E0E0E0" opacity="1.000000" stroke="none" 
	d="
M268.781128,35.701916 
	C268.802124,36.779617 268.620026,37.617153 267.964478,38.721245 
	C266.837372,39.011585 266.183685,39.035381 265.529999,39.059174 
	C265.438995,37.949593 265.347992,36.840008 265.373291,35.325737 
	C266.519043,35.101280 267.548553,35.281513 268.781128,35.701916 
z"/>
<path fill="#EAEAEA" opacity="1.000000" stroke="none" 
	d="
M316.991272,122.973587 
	C317.040741,122.796898 317.090210,122.620216 317.266907,122.199509 
	C321.618774,123.518883 320.016632,125.679947 317.677124,127.913033 
	C316.985413,127.799103 316.618835,127.655441 316.283875,126.968170 
	C316.540771,125.274239 316.766022,124.123909 316.991272,122.973587 
z"/>
<path fill="#EAEAEA" opacity="1.000000" stroke="none" 
	d="
M316.108948,116.236023 
	C315.978729,115.512817 315.981079,115.094276 315.931763,114.365601 
	C317.062958,115.200867 318.245789,116.346260 319.428589,117.491653 
	C318.995300,117.889297 318.562012,118.286934 318.128693,118.684578 
	C317.499634,117.969948 316.870575,117.255318 316.108948,116.236023 
z"/>
<path fill="#F1F1F1" opacity="1.000000" stroke="none" 
	d="
M286.035675,115.139526 
	C286.090820,114.947311 286.145935,114.755096 286.119019,114.274376 
	C287.028717,115.074806 288.020477,116.163742 289.016174,117.618454 
	C288.271729,117.991058 287.523285,117.997887 286.387299,117.648216 
	C286.011719,116.574318 286.023682,115.856926 286.035675,115.139526 
z"/>
<path fill="#F1F1F1" opacity="1.000000" stroke="none" 
	d="
M272.037231,115.146339 
	C272.093628,114.952904 272.150024,114.759476 272.121765,114.275925 
	C273.028473,115.075073 274.019836,116.164352 275.015442,117.619400 
	C274.269562,117.991058 273.519440,117.996933 272.383118,117.647293 
	C272.010376,116.576630 272.023804,115.861481 272.037231,115.146339 
z"/>
<path fill="#CCCCCC" opacity="1.000000" stroke="none" 
	d="
M96.079117,56.868843 
	C96.937180,55.914406 98.174057,55.060436 99.719887,54.097336 
	C99.323395,54.992180 98.617943,55.996147 97.574821,57.027149 
	C96.977409,57.025890 96.717674,56.997601 96.079117,56.868843 
z"/>
<path fill="#FBFBFB" opacity="1.000000" stroke="none" 
	d="
M243.008423,58.780376 
	C252.877563,57.312412 258.622101,61.105560 260.097168,70.477516 
	C260.697479,74.291740 260.434235,78.453911 259.581787,82.236450 
	C258.205902,88.341690 253.299652,91.920197 247.421188,92.108902 
	C240.923615,92.317474 235.933655,88.890610 233.737015,82.711281 
	C230.055405,72.354500 233.767715,62.399387 243.008423,58.780376 
z"/>
<path fill="#F9F9F9" opacity="1.000000" stroke="none" 
	d="
M233.367218,51.627213 
	C233.033142,47.418034 236.557220,46.280411 239.536316,45.283733 
	C240.592468,44.930397 242.457977,46.996277 243.964920,48.315384 
	C240.554642,49.631824 237.133453,50.590618 233.367218,51.627213 
z"/>
<path fill="#FDFDFD" opacity="1.000000" stroke="none" 
	d="
M305.000305,14.003327 
	C311.064606,15.645058 313.464508,20.400555 312.061951,27.996183 
	C310.891144,34.336777 306.694336,36.538151 296.977448,35.622292 
	C296.977448,33.098415 296.977448,30.508087 297.399353,27.415836 
	C298.444489,26.236506 299.736481,25.293753 299.589050,24.922165 
	C297.844055,20.524382 300.567047,18.523462 303.663483,16.506979 
	C304.358032,16.054667 304.567505,14.857553 305.000305,14.003327 
z"/>
<path fill="#ECECEC" opacity="1.000000" stroke="none" 
	d="
M304.663239,13.774199 
	C304.567505,14.857553 304.358032,16.054667 303.663483,16.506979 
	C300.567047,18.523462 297.844055,20.524382 299.589050,24.922165 
	C299.736481,25.293753 298.444489,26.236506 297.479187,26.964258 
	C297.137146,22.600643 297.137146,18.186682 297.137146,13.116023 
	C299.588989,13.262353 301.957611,13.403714 304.663239,13.774199 
z"/>
<path fill="#F9F9F9" opacity="1.000000" stroke="none" 
	d="
M216.766602,35.566216 
	C211.461426,32.758415 209.158447,28.070807 210.159470,22.135561 
	C210.861984,17.970198 212.744888,14.589938 217.346176,13.606987 
	C221.761673,12.663725 225.304977,13.975865 227.417313,18.016310 
	C229.815720,22.603912 229.714325,27.352154 227.078705,31.818758 
	C224.850021,35.595673 221.251526,36.454708 216.766602,35.566216 
z"/>
<path fill="#EAEAEA" opacity="1.000000" stroke="none" 
	d="
M337.636658,18.648148 
	C338.281128,16.923870 338.777710,15.551826 339.550049,13.417933 
	C341.151489,18.097754 342.501526,22.042900 343.979401,26.361629 
	C340.868866,26.361629 338.298248,26.361629 335.029449,26.361629 
	C335.894012,23.773829 336.691406,21.387104 337.636658,18.648148 
z"/>
<path fill="#FDFDFD" opacity="1.000000" stroke="none" 
	d="
M265.432129,39.501724 
	C266.183685,39.035381 266.837372,39.011585 267.817474,39.012444 
	C268.213013,39.686440 268.282104,40.335793 268.286926,41.307819 
	C268.163605,45.497025 265.645813,48.032722 262.387421,47.688377 
	C259.838379,47.418995 257.551270,44.671394 255.090515,42.690247 
	C257.501495,42.295334 260.001953,42.446220 262.423096,42.076969 
	C263.477386,41.916168 264.368866,40.687798 265.432129,39.501724 
z"/>
<path fill="#E0E0E0" opacity="1.000000" stroke="none" 
	d="
M249.622620,42.217495 
	C248.723801,42.519947 247.429016,42.724171 246.058517,42.610542 
	C247.064087,42.234882 248.145370,42.177074 249.622620,42.217495 
z"/>
<path fill="#FDFDFD" opacity="1.000000" stroke="none" 
	d="
M316.612061,122.909134 
	C316.766022,124.123909 316.540771,125.274239 316.167297,126.688202 
	C312.018433,128.347305 309.352264,128.040115 310.769226,122.061836 
	C312.541168,122.315727 314.386993,122.580200 316.612061,122.909134 
z"/>
<path fill="#FDFDFD" opacity="1.000000" stroke="none" 
	d="
M285.603760,115.130981 
	C286.023682,115.856926 286.011719,116.574318 286.013367,117.650787 
	C286.088196,118.751190 286.149384,119.492516 286.118256,120.456039 
	C284.561829,120.808052 283.097748,120.937874 281.304626,121.096863 
	C281.304626,119.127861 281.304626,117.404251 281.304626,115.413162 
	C282.629822,115.313538 283.900848,115.217987 285.603760,115.130981 
z"/>
<path fill="#FDFDFD" opacity="1.000000" stroke="none" 
	d="
M271.604980,115.136543 
	C272.023804,115.861481 272.010376,116.576630 272.008331,117.649750 
	C272.083557,118.746017 272.147400,119.484314 272.119690,120.443932 
	C270.564117,120.800079 269.100037,120.934914 267.301514,121.100540 
	C267.301514,119.127022 267.301514,117.403496 267.301514,115.402885 
	C268.628448,115.308228 269.900604,115.217484 271.604980,115.136543 
z"/>
</svg>